<?xml version="1.0" ?>

<!-- License: CC Attribution. Made by Perdana Kurniawan Arta: https://www.behance.net/perdanakun -->
<svg width="800px" height="800px" viewBox="0 0 200 200" id="Layer_1" version="1.1" xml:space="preserve" xmlns="http://www.w3.org/2000/svg" xmlns:xlink="http://www.w3.org/1999/xlink">

<style type="text/css">
	.st0{fill:#71A517;}
	.st1{fill:#FAD50A;}
	.st2{fill:#FAD50A;stroke:#2B2B2B;stroke-width:5;stroke-linecap:round;stroke-linejoin:round;stroke-miterlimit:10;}
	.st3{fill:#FFFFFF;stroke:#2B2B2B;stroke-width:5;stroke-linecap:round;stroke-linejoin:round;stroke-miterlimit:10;}
	.st4{fill:#7B3D72;}
	.st5{fill:#F2433B;}
	.st6{fill:#F2433B;stroke:#2B2B2B;stroke-width:6;stroke-linecap:round;stroke-linejoin:round;stroke-miterlimit:10;}
	.st7{fill:#FFFFFF;stroke:#2B2B2B;stroke-width:6;stroke-linecap:round;stroke-linejoin:round;stroke-miterlimit:10;}
	.st8{fill:#DE3727;stroke:#2B2B2B;stroke-width:6;stroke-linecap:round;stroke-linejoin:round;stroke-miterlimit:10;}
	.st9{fill:#8EBF04;}
	.st10{fill:#8EBF04;stroke:#2B2B2B;stroke-width:6;stroke-linecap:round;stroke-linejoin:round;stroke-miterlimit:10;}
	.st11{fill:#003A52;}
	.st12{fill:#7B3D72;stroke:#2B2B2B;stroke-width:6;stroke-linecap:round;stroke-linejoin:round;stroke-miterlimit:10;}
	.st13{fill:#2B2B2B;}
	.st14{fill:none;stroke:#2B2B2B;stroke-width:6;stroke-linecap:round;stroke-linejoin:round;stroke-miterlimit:10;}
	.st15{fill:#F78D0F;}
	.st16{fill:#F78D0F;stroke:#2B2B2B;stroke-width:6;stroke-linecap:round;stroke-linejoin:round;stroke-miterlimit:10;}
</style>

<g>

<circle class="st5" cx="100" cy="100" r="78.6"/>

<g>

<path class="st7" d="M129.3,73.9c0,0-0.1,0-0.1,0c0,0-4.6-0.2-12.3,10.4c-8.8,12.2-26.3,39.3-66.6,46.2c-0.4,0.1-0.4,0.6-0.1,0.7    c7.6,2.7,47.5,14.9,78.4-24.3c0,0,7.6-9.8,9.3-20c1-5.9,0.7-14.9-8.5-13.1C129.3,73.9,129.3,73.9,129.3,73.9z"/>

<line class="st7" x1="132.5" x2="136.3" y1="73.7" y2="62.3"/>

<path class="st6" d="M137.6,78.5c-1.7-7.8-11.7-4.8-11.7-4.8l0,0c-10.5,6.6-27.8,5.9-27.8,5.9c4.3,17.2,28.1,6.4,28.1,6.4    s1.5-0.9,1.5,0.7c0,0,6.2,25.4,22.3,18.2C150.2,104.9,138.4,91.1,137.6,78.5C137.6,78.5,137.6,78.5,137.6,78.5z"/>

</g>

</g>

</svg>